{
	"asset":{
		"generator":"Khronos glTF Blender I/O v3.5.30",
		"version":"2.0"
	},
	"extensionsUsed":[
		"KHR_materials_specular",
		"KHR_materials_ior"
	],
	"scene":0,
	"scenes":[
		{
			"name":"Scene",
			"nodes":[
				0,
				1,
				2,
				3,
				4,
				5,
				6,
				7,
				8,
				9,
				10,
				11,
				12,
				13,
				14
			]
		}
	],
	"nodes":[
		{
			"mesh":0,
			"name":"Cube"
		},
		{
			"mesh":1,
			"name":"Cube.001"
		},
		{
			"mesh":2,
			"name":"Cube.002",
			"translation":[
				0.01902042143046856,
				2.1193125247955322,
				2.6236979961395264
			]
		},
		{
			"mesh":3,
			"name":"Cube.003",
			"translation":[
				0.01902042143046856,
				2.270698308944702,
				2.6236979961395264
			]
		},
		{
			"mesh":4,
			"name":"Cube.004",
			"translation":[
				-2.0238349437713623,
				2.1193125247955322,
				2.6236979961395264
			]
		},
		{
			"mesh":5,
			"name":"Cube.005",
			"translation":[
				-2.0238349437713623,
				2.270698308944702,
				2.6236979961395264
			]
		},
		{
			"mesh":6,
			"name":"Cube.006",
			"translation":[
				-1.0204905271530151,
				2.1193125247955322,
				2.6236979961395264
			]
		},
		{
			"mesh":7,
			"name":"Cube.007",
			"translation":[
				-1.0204905271530151,
				2.270698308944702,
				2.6236979961395264
			]
		},
		{
			"mesh":8,
			"name":"Plane",
			"translation":[
				-0.005234196782112122,
				2.276090621948242,
				2.6642508506774902
			]
		},
		{
			"mesh":9,
			"name":"Cube.008",
			"translation":[
				-1.8224642276763916,
				3.0834426879882812,
				-1.3224642276763916
			]
		},
		{
			"mesh":10,
			"name":"Cube.009",
			"translation":[
				-1.8224642276763916,
				3.0834426879882812,
				-0.2443392276763916
			]
		},
		{
			"mesh":11,
			"name":"Cylinder",
			"translation":[
				-1.8213942050933838,
				3.324345350265503,
				-0.35273477435112
			]
		},
		{
			"mesh":12,
			"name":"Cylinder.001",
			"translation":[
				-1.8213942050933838,
				3.324345350265503,
				-1.4558327198028564
			]
		},
		{
			"mesh":13,
			"name":"Plane.001",
			"translation":[
				-0.10240253806114197,
				2.276090621948242,
				2.6642508506774902
			]
		},
		{
			"mesh":14,
			"name":"Plane.002"
		}
	],
	"materials":[
		{
			"doubleSided":true,
			"extensions":{
				"KHR_materials_specular":{
					"specularColorFactor":[
						0,
						0,
						0
					]
				},
				"KHR_materials_ior":{
					"ior":1.4500000476837158
				}
			},
			"name":"Main",
			"pbrMetallicRoughness":{
				"baseColorFactor":[
					0.800041675567627,
					0.1554422229528427,
					0.058049995452165604,
					1
				],
				"metallicFactor":0
			}
		},
		{
			"doubleSided":true,
			"name":"Red",
			"pbrMetallicRoughness":{
				"baseColorFactor":[
					0.8000133037567139,
					0,
					0.0008813777239993215,
					1
				],
				"metallicFactor":0,
				"roughnessFactor":0.5
			}
		},
		{
			"doubleSided":true,
			"extensions":{
				"KHR_materials_specular":{
					"specularColorFactor":[
						0.5134829151771068,
						0.5134829151771068,
						0.5134829151771068
					]
				},
				"KHR_materials_ior":{
					"ior":1.4500000476837158
				}
			},
			"name":"Blue",
			"pbrMetallicRoughness":{
				"baseColorFactor":[
					0.018143372610211372,
					0.7108369469642639,
					0.8000074028968811,
					1
				],
				"metallicFactor":0,
				"roughnessFactor":0
			}
		},
		{
			"doubleSided":true,
			"name":"gray",
			"pbrMetallicRoughness":{
				"baseColorFactor":[
					0.4019693434238434,
					0.4019693434238434,
					0.4019693434238434,
					1
				],
				"metallicFactor":0,
				"roughnessFactor":0.5
			}
		},
		{
			"doubleSided":true,
			"name":"Black",
			"pbrMetallicRoughness":{
				"baseColorFactor":[
					0.029099533334374428,
					0.029099533334374428,
					0.029099533334374428,
					1
				],
				"metallicFactor":0,
				"roughnessFactor":0.5
			}
		},
		{
			"doubleSided":true,
			"name":"White",
			"pbrMetallicRoughness":{
				"baseColorFactor":[
					0.800000011920929,
					0.800000011920929,
					0.800000011920929,
					1
				],
				"metallicFactor":0,
				"roughnessFactor":0.5
			}
		},
		{
			"doubleSided":true,
			"name":"Material",
			"pbrMetallicRoughness":{
				"baseColorFactor":[
					0.8000504970550537,
					0.4087575376033783,
					0.765285849571228,
					1
				],
				"metallicFactor":0,
				"roughnessFactor":0.5
			}
		}
	],
	"meshes":[
		{
			"name":"Cube",
			"primitives":[
				{
					"attributes":{
						"POSITION":0,
						"TEXCOORD_0":1,
						"NORMAL":2
					},
					"indices":3,
					"material":0
				},
				{
					"attributes":{
						"POSITION":4,
						"TEXCOORD_0":5,
						"NORMAL":6
					},
					"indices":7,
					"material":1
				},
				{
					"attributes":{
						"POSITION":8,
						"TEXCOORD_0":9,
						"NORMAL":10
					},
					"indices":11,
					"material":2
				}
			]
		},
		{
			"name":"Cube.001",
			"primitives":[
				{
					"attributes":{
						"POSITION":12,
						"TEXCOORD_0":13,
						"NORMAL":14
					},
					"indices":15,
					"material":1
				}
			]
		},
		{
			"name":"Cube.002",
			"primitives":[
				{
					"attributes":{
						"POSITION":16,
						"TEXCOORD_0":17,
						"NORMAL":18
					},
					"indices":19
				}
			]
		},
		{
			"name":"Cube.003",
			"primitives":[
				{
					"attributes":{
						"POSITION":20,
						"TEXCOORD_0":21,
						"NORMAL":22
					},
					"indices":19
				}
			]
		},
		{
			"name":"Cube.004",
			"primitives":[
				{
					"attributes":{
						"POSITION":23,
						"TEXCOORD_0":24,
						"NORMAL":25
					},
					"indices":19
				}
			]
		},
		{
			"name":"Cube.005",
			"primitives":[
				{
					"attributes":{
						"POSITION":26,
						"TEXCOORD_0":27,
						"NORMAL":28
					},
					"indices":19
				}
			]
		},
		{
			"name":"Cube.006",
			"primitives":[
				{
					"attributes":{
						"POSITION":29,
						"TEXCOORD_0":30,
						"NORMAL":31
					},
					"indices":19
				}
			]
		},
		{
			"name":"Cube.007",
			"primitives":[
				{
					"attributes":{
						"POSITION":32,
						"TEXCOORD_0":33,
						"NORMAL":34
					},
					"indices":19
				}
			]
		},
		{
			"name":"Plane",
			"primitives":[
				{
					"attributes":{
						"POSITION":35,
						"TEXCOORD_0":36,
						"NORMAL":37
					},
					"indices":38,
					"material":1
				}
			]
		},
		{
			"name":"Cube.008",
			"primitives":[
				{
					"attributes":{
						"POSITION":39,
						"TEXCOORD_0":40,
						"NORMAL":41
					},
					"indices":19,
					"material":3
				}
			]
		},
		{
			"name":"Cube.009",
			"primitives":[
				{
					"attributes":{
						"POSITION":42,
						"TEXCOORD_0":43,
						"NORMAL":44
					},
					"indices":19,
					"material":3
				}
			]
		},
		{
			"name":"Cylinder",
			"primitives":[
				{
					"attributes":{
						"POSITION":45,
						"TEXCOORD_0":46,
						"NORMAL":47
					},
					"indices":48,
					"material":4
				}
			]
		},
		{
			"name":"Cylinder.001",
			"primitives":[
				{
					"attributes":{
						"POSITION":49,
						"TEXCOORD_0":50,
						"NORMAL":51
					},
					"indices":48,
					"material":4
				}
			]
		},
		{
			"name":"Plane.001",
			"primitives":[
				{
					"attributes":{
						"POSITION":52,
						"TEXCOORD_0":53,
						"NORMAL":54
					},
					"indices":38,
					"material":5
				}
			]
		},
		{
			"name":"Plane.002",
			"primitives":[
				{
					"attributes":{
						"POSITION":55,
						"TEXCOORD_0":56,
						"NORMAL":57
					},
					"indices":58,
					"material":6
				}
			]
		}
	],
	"accessors":[
		{
			"bufferView":0,
			"componentType":5126,
			"count":79,
			"max":[
				2.5,
				3,
				2.5
			],
			"min":[
				-2.5,
				0,
				-2.5
			],
			"type":"VEC3"
		},
		{
			"bufferView":1,
			"componentType":5126,
			"count":79,
			"type":"VEC2"
		},
		{
			"bufferView":2,
			"componentType":5126,
			"count":79,
			"type":"VEC3"
		},
		{
			"bufferView":3,
			"componentType":5123,
			"count":141,
			"type":"SCALAR"
		},
		{
			"bufferView":4,
			"componentType":5126,
			"count":97,
			"max":[
				2.5,
				3,
				2.5
			],
			"min":[
				-2.5,
				0,
				-2.5
			],
			"type":"VEC3"
		},
		{
			"bufferView":5,
			"componentType":5126,
			"count":97,
			"type":"VEC2"
		},
		{
			"bufferView":6,
			"componentType":5126,
			"count":97,
			"type":"VEC3"
		},
		{
			"bufferView":7,
			"componentType":5123,
			"count":183,
			"type":"SCALAR"
		},
		{
			"bufferView":8,
			"componentType":5126,
			"count":8,
			"max":[
				1.8551819324493408,
				1.9036662578582764,
				2.274705410003662
			],
			"min":[
				-1.9489682912826538,
				0.0442623607814312,
				2.249112367630005
			],
			"type":"VEC3"
		},
		{
			"bufferView":9,
			"componentType":5126,
			"count":8,
			"type":"VEC2"
		},
		{
			"bufferView":10,
			"componentType":5126,
			"count":8,
			"type":"VEC3"
		},
		{
			"bufferView":11,
			"componentType":5123,
			"count":12,
			"type":"SCALAR"
		},
		{
			"bufferView":12,
			"componentType":5126,
			"count":88,
			"max":[
				2.39363169670105,
				0.2333238422870636,
				2.39363169670105
			],
			"min":[
				-2.39363169670105,
				0,
				-2.39363169670105
			],
			"type":"VEC3"
		},
		{
			"bufferView":13,
			"componentType":5126,
			"count":88,
			"type":"VEC2"
		},
		{
			"bufferView":14,
			"componentType":5126,
			"count":88,
			"type":"VEC3"
		},
		{
			"bufferView":15,
			"componentType":5123,
			"count":180,
			"type":"SCALAR"
		},
		{
			"bufferView":16,
			"componentType":5126,
			"count":24,
			"max":[
				0.01902042143046856,
				0.018545111641287804,
				0.3012336492538452
			],
			"min":[
				-0.01902042143046856,
				-0.018545111641287804,
				-0.3012336492538452
			],
			"type":"VEC3"
		},
		{
			"bufferView":17,
			"componentType":5126,
			"count":24,
			"type":"VEC2"
		},
		{
			"bufferView":18,
			"componentType":5126,
			"count":24,
			"type":"VEC3"
		},
		{
			"bufferView":19,
			"componentType":5123,
			"count":36,
			"type":"SCALAR"
		},
		{
			"bufferView":20,
			"componentType":5126,
			"count":24,
			"max":[
				0.01902042143046856,
				0.1328406035900116,
				0.3012336492538452
			],
			"min":[
				-0.01902042143046856,
				-0.1328406184911728,
				-0.3012336492538452
			],
			"type":"VEC3"
		},
		{
			"bufferView":21,
			"componentType":5126,
			"count":24,
			"type":"VEC2"
		},
		{
			"bufferView":22,
			"componentType":5126,
			"count":24,
			"type":"VEC3"
		},
		{
			"bufferView":23,
			"componentType":5126,
			"count":24,
			"max":[
				0.01902042143046856,
				0.018545111641287804,
				0.3012336492538452
			],
			"min":[
				-0.01902042143046856,
				-0.018545111641287804,
				-0.3012336492538452
			],
			"type":"VEC3"
		},
		{
			"bufferView":24,
			"componentType":5126,
			"count":24,
			"type":"VEC2"
		},
		{
			"bufferView":25,
			"componentType":5126,
			"count":24,
			"type":"VEC3"
		},
		{
			"bufferView":26,
			"componentType":5126,
			"count":24,
			"max":[
				0.01902042143046856,
				0.1328406035900116,
				0.3012336492538452
			],
			"min":[
				-0.01902042143046856,
				-0.1328406184911728,
				-0.3012336492538452
			],
			"type":"VEC3"
		},
		{
			"bufferView":27,
			"componentType":5126,
			"count":24,
			"type":"VEC2"
		},
		{
			"bufferView":28,
			"componentType":5126,
			"count":24,
			"type":"VEC3"
		},
		{
			"bufferView":29,
			"componentType":5126,
			"count":24,
			"max":[
				0.01902042143046856,
				0.018545111641287804,
				0.3012336492538452
			],
			"min":[
				-0.01902042143046856,
				-0.018545111641287804,
				-0.3012336492538452
			],
			"type":"VEC3"
		},
		{
			"bufferView":30,
			"componentType":5126,
			"count":24,
			"type":"VEC2"
		},
		{
			"bufferView":31,
			"componentType":5126,
			"count":24,
			"type":"VEC3"
		},
		{
			"bufferView":32,
			"componentType":5126,
			"count":24,
			"max":[
				0.01902042143046856,
				0.1328406035900116,
				0.3012336492538452
			],
			"min":[
				-0.01902042143046856,
				-0.1328406184911728,
				-0.3012336492538452
			],
			"type":"VEC3"
		},
		{
			"bufferView":33,
			"componentType":5126,
			"count":24,
			"type":"VEC2"
		},
		{
			"bufferView":34,
			"componentType":5126,
			"count":24,
			"type":"VEC3"
		},
		{
			"bufferView":35,
			"componentType":5126,
			"count":78,
			"max":[
				0.044135987758636475,
				0.15117311477661133,
				0.3072904646396637
			],
			"min":[
				-0.044135987758636475,
				-0.180550217628479,
				-0.37627333402633667
			],
			"type":"VEC3"
		},
		{
			"bufferView":36,
			"componentType":5126,
			"count":78,
			"type":"VEC2"
		},
		{
			"bufferView":37,
			"componentType":5126,
			"count":78,
			"type":"VEC3"
		},
		{
			"bufferView":38,
			"componentType":5123,
			"count":144,
			"type":"SCALAR"
		},
		{
			"bufferView":39,
			"componentType":5126,
			"count":24,
			"max":[
				0.3499999940395355,
				0.25,
				0.44999998807907104
			],
			"min":[
				-0.3499999940395355,
				-0.25,
				-0.44999998807907104
			],
			"type":"VEC3"
		},
		{
			"bufferView":40,
			"componentType":5126,
			"count":24,
			"type":"VEC2"
		},
		{
			"bufferView":41,
			"componentType":5126,
			"count":24,
			"type":"VEC3"
		},
		{
			"bufferView":42,
			"componentType":5126,
			"count":24,
			"max":[
				0.3499999940395355,
				0.25,
				0.44999998807907104
			],
			"min":[
				-0.3499999940395355,
				-0.25,
				-0.44999998807907104
			],
			"type":"VEC3"
		},
		{
			"bufferView":43,
			"componentType":5126,
			"count":24,
			"type":"VEC2"
		},
		{
			"bufferView":44,
			"componentType":5126,
			"count":24,
			"type":"VEC3"
		},
		{
			"bufferView":45,
			"componentType":5126,
			"count":194,
			"max":[
				0.2389405518770218,
				0.03093973733484745,
				0.2389405518770218
			],
			"min":[
				-0.2389405518770218,
				-0.03093973733484745,
				-0.2389405518770218
			],
			"type":"VEC3"
		},
		{
			"bufferView":46,
			"componentType":5126,
			"count":194,
			"type":"VEC2"
		},
		{
			"bufferView":47,
			"componentType":5126,
			"count":194,
			"type":"VEC3"
		},
		{
			"bufferView":48,
			"componentType":5123,
			"count":564,
			"type":"SCALAR"
		},
		{
			"bufferView":49,
			"componentType":5126,
			"count":194,
			"max":[
				0.2389405518770218,
				0.03093973733484745,
				0.2389405518770218
			],
			"min":[
				-0.2389405518770218,
				-0.03093973733484745,
				-0.2389405518770218
			],
			"type":"VEC3"
		},
		{
			"bufferView":50,
			"componentType":5126,
			"count":194,
			"type":"VEC2"
		},
		{
			"bufferView":51,
			"componentType":5126,
			"count":194,
			"type":"VEC3"
		},
		{
			"bufferView":52,
			"componentType":5126,
			"count":78,
			"max":[
				0.044135987758636475,
				0.15117311477661133,
				0.3072904646396637
			],
			"min":[
				-0.044135987758636475,
				-0.180550217628479,
				-0.37627333402633667
			],
			"type":"VEC3"
		},
		{
			"bufferView":53,
			"componentType":5126,
			"count":78,
			"type":"VEC2"
		},
		{
			"bufferView":54,
			"componentType":5126,
			"count":78,
			"type":"VEC3"
		},
		{
			"bufferView":55,
			"componentType":5126,
			"count":4,
			"max":[
				25,
				0,
				25
			],
			"min":[
				-25,
				0,
				-25
			],
			"type":"VEC3"
		},
		{
			"bufferView":56,
			"componentType":5126,
			"count":4,
			"type":"VEC2"
		},
		{
			"bufferView":57,
			"componentType":5126,
			"count":4,
			"type":"VEC3"
		},
		{
			"bufferView":58,
			"componentType":5123,
			"count":6,
			"type":"SCALAR"
		}
	],
	"bufferViews":[
		{
			"buffer":0,
			"byteLength":948,
			"byteOffset":0,
			"target":34962
		},
		{
			"buffer":0,
			"byteLength":632,
			"byteOffset":948,
			"target":34962
		},
		{
			"buffer":0,
			"byteLength":948,
			"byteOffset":1580,
			"target":34962
		},
		{
			"buffer":0,
			"byteLength":282,
			"byteOffset":2528,
			"target":34963
		},
		{
			"buffer":0,
			"byteLength":1164,
			"byteOffset":2812,
			"target":34962
		},
		{
			"buffer":0,
			"byteLength":776,
			"byteOffset":3976,
			"target":34962
		},
		{
			"buffer":0,
			"byteLength":1164,
			"byteOffset":4752,
			"target":34962
		},
		{
			"buffer":0,
			"byteLength":366,
			"byteOffset":5916,
			"target":34963
		},
		{
			"buffer":0,
			"byteLength":96,
			"byteOffset":6284,
			"target":34962
		},
		{
			"buffer":0,
			"byteLength":64,
			"byteOffset":6380,
			"target":34962
		},
		{
			"buffer":0,
			"byteLength":96,
			"byteOffset":6444,
			"target":34962
		},
		{
			"buffer":0,
			"byteLength":24,
			"byteOffset":6540,
			"target":34963
		},
		{
			"buffer":0,
			"byteLength":1056,
			"byteOffset":6564,
			"target":34962
		},
		{
			"buffer":0,
			"byteLength":704,
			"byteOffset":7620,
			"target":34962
		},
		{
			"buffer":0,
			"byteLength":1056,
			"byteOffset":8324,
			"target":34962
		},
		{
			"buffer":0,
			"byteLength":360,
			"byteOffset":9380,
			"target":34963
		},
		{
			"buffer":0,
			"byteLength":288,
			"byteOffset":9740,
			"target":34962
		},
		{
			"buffer":0,
			"byteLength":192,
			"byteOffset":10028,
			"target":34962
		},
		{
			"buffer":0,
			"byteLength":288,
			"byteOffset":10220,
			"target":34962
		},
		{
			"buffer":0,
			"byteLength":72,
			"byteOffset":10508,
			"target":34963
		},
		{
			"buffer":0,
			"byteLength":288,
			"byteOffset":10580,
			"target":34962
		},
		{
			"buffer":0,
			"byteLength":192,
			"byteOffset":10868,
			"target":34962
		},
		{
			"buffer":0,
			"byteLength":288,
			"byteOffset":11060,
			"target":34962
		},
		{
			"buffer":0,
			"byteLength":288,
			"byteOffset":11348,
			"target":34962
		},
		{
			"buffer":0,
			"byteLength":192,
			"byteOffset":11636,
			"target":34962
		},
		{
			"buffer":0,
			"byteLength":288,
			"byteOffset":11828,
			"target":34962
		},
		{
			"buffer":0,
			"byteLength":288,
			"byteOffset":12116,
			"target":34962
		},
		{
			"buffer":0,
			"byteLength":192,
			"byteOffset":12404,
			"target":34962
		},
		{
			"buffer":0,
			"byteLength":288,
			"byteOffset":12596,
			"target":34962
		},
		{
			"buffer":0,
			"byteLength":288,
			"byteOffset":12884,
			"target":34962
		},
		{
			"buffer":0,
			"byteLength":192,
			"byteOffset":13172,
			"target":34962
		},
		{
			"buffer":0,
			"byteLength":288,
			"byteOffset":13364,
			"target":34962
		},
		{
			"buffer":0,
			"byteLength":288,
			"byteOffset":13652,
			"target":34962
		},
		{
			"buffer":0,
			"byteLength":192,
			"byteOffset":13940,
			"target":34962
		},
		{
			"buffer":0,
			"byteLength":288,
			"byteOffset":14132,
			"target":34962
		},
		{
			"buffer":0,
			"byteLength":936,
			"byteOffset":14420,
			"target":34962
		},
		{
			"buffer":0,
			"byteLength":624,
			"byteOffset":15356,
			"target":34962
		},
		{
			"buffer":0,
			"byteLength":936,
			"byteOffset":15980,
			"target":34962
		},
		{
			"buffer":0,
			"byteLength":288,
			"byteOffset":16916,
			"target":34963
		},
		{
			"buffer":0,
			"byteLength":288,
			"byteOffset":17204,
			"target":34962
		},
		{
			"buffer":0,
			"byteLength":192,
			"byteOffset":17492,
			"target":34962
		},
		{
			"buffer":0,
			"byteLength":288,
			"byteOffset":17684,
			"target":34962
		},
		{
			"buffer":0,
			"byteLength":288,
			"byteOffset":17972,
			"target":34962
		},
		{
			"buffer":0,
			"byteLength":192,
			"byteOffset":18260,
			"target":34962
		},
		{
			"buffer":0,
			"byteLength":288,
			"byteOffset":18452,
			"target":34962
		},
		{
			"buffer":0,
			"byteLength":2328,
			"byteOffset":18740,
			"target":34962
		},
		{
			"buffer":0,
			"byteLength":1552,
			"byteOffset":21068,
			"target":34962
		},
		{
			"buffer":0,
			"byteLength":2328,
			"byteOffset":22620,
			"target":34962
		},
		{
			"buffer":0,
			"byteLength":1128,
			"byteOffset":24948,
			"target":34963
		},
		{
			"buffer":0,
			"byteLength":2328,
			"byteOffset":26076,
			"target":34962
		},
		{
			"buffer":0,
			"byteLength":1552,
			"byteOffset":28404,
			"target":34962
		},
		{
			"buffer":0,
			"byteLength":2328,
			"byteOffset":29956,
			"target":34962
		},
		{
			"buffer":0,
			"byteLength":936,
			"byteOffset":32284,
			"target":34962
		},
		{
			"buffer":0,
			"byteLength":624,
			"byteOffset":33220,
			"target":34962
		},
		{
			"buffer":0,
			"byteLength":936,
			"byteOffset":33844,
			"target":34962
		},
		{
			"buffer":0,
			"byteLength":48,
			"byteOffset":34780,
			"target":34962
		},
		{
			"buffer":0,
			"byteLength":32,
			"byteOffset":34828,
			"target":34962
		},
		{
			"buffer":0,
			"byteLength":48,
			"byteOffset":34860,
			"target":34962
		},
		{
			"buffer":0,
			"byteLength":12,
			"byteOffset":34908,
			"target":34963
		}
	],
	"buffers":[
		{
			"byteLength":34920,
			"uri":"data:application/octet-stream;base64,"
		}
	]
}
